<?xml version="1.0" encoding="utf-8"?>
<!-- Generator: Adobe Illustrator 25.2.3, SVG Export Plug-In . SVG Version: 6.00 Build 0)  -->
<svg version="1.1" id="Outline" xmlns="http://www.w3.org/2000/svg" xmlns:xlink="http://www.w3.org/1999/xlink" x="0px" y="0px"
	 viewBox="0 0 512 512" enable-background="new 0 0 512 512" xml:space="preserve" width="24" height="24" >
<path d="M276.805,377.609c-3.531-2.664-8.547-1.953-11.195,1.586l-8,10.641c-2.656,3.531-1.945,8.547,1.586,11.195
	c1.438,1.086,3.125,1.609,4.797,1.609c2.43,0,4.828-1.102,6.398-3.195l8-10.641C281.047,385.273,280.336,380.258,276.805,377.609z"
	/>
<path d="M480,74.68V40c0-4.422-3.578-8-8-8h-36.688L405.656,2.344c-3.125-3.125-8.188-3.125-11.312,0L364.688,32H328
	c-4.422,0-8,3.578-8,8v34.68l-29.453,27.469C288.922,103.664,288,105.781,288,108s0.922,4.336,2.539,5.852L305.701,128H88
	c-8.82,0-16,7.18-16,16v16H37.922c-7.07,0-13.359,4.719-15.43,12.039l-22.32,106.32c-0.059,0.279,0.022,0.542-0.006,0.819
	C0.135,279.461,0,279.708,0,280c0,0.524,0.083,1.005,0.148,1.496c0.003,0.017,0.001,0.035,0.005,0.051
	c1.245,9.042,13.217,12.498,23.69,13.757V464H16c-8.82,0-16,7.18-16,16v16c0,8.82,7.18,16,16,16h408c8.82,0,16-7.18,16-16v-16
	c0-8.767-7.097-15.898-15.844-15.984V293.809C437.012,290.617,440,284.727,440,280c0-0.547-0.055-1.102-0.172-1.641l-17.113-81.762
	L435.312,184H472c4.422,0,8-3.578,8-8v-34.68l29.453-27.469c1.625-1.516,2.547-3.633,2.547-5.852s-0.922-4.336-2.547-5.852
	L480,74.68z M289.534,176l21.679,101.167C307.268,278.482,299.145,280,288,280c-12.244,0-20.8-1.827-24.212-3.209L256.589,176
	H289.534z M240.554,176l7.212,100.965C244.082,278.322,235.73,280,224,280s-20.082-1.678-23.766-3.035L207.446,176H240.554z
	 M184.212,276.791C180.8,278.173,172.244,280,160,280c-11.145,0-19.268-1.518-23.213-2.833L158.466,176h32.945L184.212,276.791z
	 M120.535,276.664C117.347,278.058,108.616,280,96,280c-11.145,0-19.268-1.518-23.213-2.833L94.466,176h47.64L120.535,276.664z
	 M37.922,176h40.184L56.478,276.931C53.759,278.21,46.441,280,36,280c-1.359,0.008-2.492,0.008-3.82-0.07
	c-7.709-0.319-12.769-1.524-15.465-2.525L37.922,176z M424,496H16v-16h56c4.422,0,8-3.578,8-8s-3.578-8-8-8H39.844V295.925
	c6.656-0.25,17.148-1.297,24.334-5.031C72.811,295.135,86.458,296,96,296c9.609,0,23.378-0.88,32-5.201
	c8.622,4.32,22.391,5.201,32,5.201s23.378-0.88,32-5.201c8.622,4.32,22.391,5.201,32,5.201s23.378-0.88,32-5.201
	c8.622,4.32,22.391,5.201,32,5.201c9.542,0,23.189-0.865,31.822-5.106C328.632,295.471,342.44,296,348,296
	c5.516,0,19.18-0.492,28-4.969c8.82,4.477,22.484,4.969,28,4.969c1.358,0,2.779-0.215,4.156-0.272V464H320V336c0-8.82-7.18-16-16-16
	H144c-8.82,0-16,7.18-16,16v128H96c-4.422,0-8,3.578-8,8s3.578,8,8,8h328V496z M232,464v-13.338l22.398-29.865
	c2.656-3.531,1.938-8.547-1.602-11.195c-3.531-2.641-8.547-1.938-11.195,1.602L232,424.005V336h72v128H232z M144,464v-13.426
	l37.992-45.613c2.828-3.391,2.367-8.438-1.031-11.266c-3.391-2.828-8.438-2.359-11.266,1.031L144,425.591V336h72v4.688
	l-21.656,21.656c-3.125,3.125-3.125,8.188,0,11.312c1.562,1.562,3.609,2.344,5.656,2.344s4.094-0.781,5.656-2.344L216,363.312V464
	H144z M423.281,277.406c-1.664,0.609-4.32,1.336-8.156,1.859C411.383,279.758,407.641,280,404,280
	c-10.442,0-17.76-1.791-20.478-3.069l-16.874-78.611c-0.922-4.312-5.148-7.094-9.5-6.141c-4.32,0.922-7.07,5.18-6.141,9.5
	l16.248,75.694C363.948,278.588,357.304,280,348,280c-10.441,0-17.759-1.79-20.478-3.069l-21.707-101.297
	c3.518-0.841,6.184-3.856,6.184-7.634c0-4.422-3.578-8-8-8H88v-16h232v32c0,4.422,3.578,8,8,8h36.688l29.656,29.656
	c1.562,1.562,3.609,2.344,5.656,2.344s4.094-0.781,5.656-2.344l3.544-3.544L423.281,277.406z M466.547,131.992
	c-1.625,1.516-2.547,3.633-2.547,5.852V168h-32c-2.125,0-4.156,0.844-5.656,2.344L400,196.688l-26.344-26.344
	c-1.5-1.5-3.531-2.344-5.656-2.344h-32v-30.156c0-2.18-0.891-4.266-2.461-5.773l-1.922-1.844c-0.242-0.234-0.5-0.445-0.766-0.648
	L307.727,108l25.727-23.992c1.625-1.516,2.547-3.633,2.547-5.852V48h32c2.125,0,4.156-0.844,5.656-2.344L400,19.312l26.344,26.344
	c1.5,1.5,3.531,2.344,5.656,2.344h32v30.156c0,2.219,0.922,4.336,2.547,5.852L492.273,108L466.547,131.992z"/>
<path d="M434.344,58.344l-88,88c-3.125,3.125-3.125,8.188,0,11.312c1.562,1.562,3.609,2.344,5.656,2.344s4.094-0.781,5.656-2.344
	l88-88c3.125-3.125,3.125-8.188,0-11.312S437.469,55.219,434.344,58.344z"/>
<path d="M372,96c11.031,0,20-8.969,20-20s-8.969-20-20-20s-20,8.969-20,20S360.969,96,372,96z M372,72c2.203,0,4,1.797,4,4
	s-1.797,4-4,4s-4-1.797-4-4S369.797,72,372,72z"/>
<path d="M428,112c-11.031,0-20,8.969-20,20s8.969,20,20,20s20-8.969,20-20S439.031,112,428,112z M428,136c-2.203,0-4-1.797-4-4
	s1.797-4,4-4s4,1.797,4,4S430.203,136,428,136z"/>
</svg>
